<?xml version="1.0" encoding="utf-8"?>
<!-- Generator: Adobe Illustrator 23.0.0, SVG Export Plug-In . SVG Version: 6.00 Build 0)  -->
<!DOCTYPE svg PUBLIC "-//W3C//DTD SVG 1.1//EN" "http://www.w3.org/Graphics/SVG/1.1/DTD/svg11.dtd" [
	<!ENTITY ns_extend "http://ns.adobe.com/Extensibility/1.0/">
	<!ENTITY ns_ai "http://ns.adobe.com/AdobeIllustrator/10.0/">
	<!ENTITY ns_graphs "http://ns.adobe.com/Graphs/1.0/">
	<!ENTITY ns_vars "http://ns.adobe.com/Variables/1.0/">
	<!ENTITY ns_imrep "http://ns.adobe.com/ImageReplacement/1.0/">
	<!ENTITY ns_sfw "http://ns.adobe.com/SaveForWeb/1.0/">
	<!ENTITY ns_custom "http://ns.adobe.com/GenericCustomNamespace/1.0/">
	<!ENTITY ns_adobe_xpath "http://ns.adobe.com/XPath/1.0/">
]>
<svg version="1.1" xmlns:x="&ns_extend;" xmlns:i="&ns_ai;" xmlns:graph="&ns_graphs;"
	 xmlns="http://www.w3.org/2000/svg" xmlns:xlink="http://www.w3.org/1999/xlink" x="0px" y="0px" viewBox="0 0 155.31 53.5"
	 enable-background="new 0 0 155.31 53.5" xml:space="preserve">
<metadata><?xpacket begin="﻿" id="W5M0MpCehiHzreSzNTczkc9d"?>
<x:xmpmeta xmlns:x="adobe:ns:meta/" x:xmptk="Adobe XMP Core 5.6-c145 79.163499, 2018/08/13-16:40:22        ">
   <rdf:RDF xmlns:rdf="http://www.w3.org/1999/02/22-rdf-syntax-ns#">
      <rdf:Description rdf:about=""
            xmlns:xmpMM="http://ns.adobe.com/xap/1.0/mm/"
            xmlns:stRef="http://ns.adobe.com/xap/1.0/sType/ResourceRef#"
            xmlns:stEvt="http://ns.adobe.com/xap/1.0/sType/ResourceEvent#"
            xmlns:dc="http://purl.org/dc/elements/1.1/"
            xmlns:xmp="http://ns.adobe.com/xap/1.0/"
            xmlns:xmpGImg="http://ns.adobe.com/xap/1.0/g/img/"
            xmlns:xmpTPg="http://ns.adobe.com/xap/1.0/t/pg/"
            xmlns:stDim="http://ns.adobe.com/xap/1.0/sType/Dimensions#"
            xmlns:stFnt="http://ns.adobe.com/xap/1.0/sType/Font#"
            xmlns:xmpG="http://ns.adobe.com/xap/1.0/g/">
         <xmpMM:DocumentID>xmp.did:5522281f-056f-4d73-ba54-3a52e35f49de</xmpMM:DocumentID>
         <xmpMM:InstanceID>xmp.iid:5522281f-056f-4d73-ba54-3a52e35f49de</xmpMM:InstanceID>
         <xmpMM:OriginalDocumentID>xmp.did:b8b0ef4c-fe8a-6a4b-8022-3d38a8fb307d</xmpMM:OriginalDocumentID>
         <xmpMM:RenditionClass>proof:pdf</xmpMM:RenditionClass>
         <xmpMM:DerivedFrom rdf:parseType="Resource">
            <stRef:instanceID>xmp.iid:3094b6a0-7766-4c9e-a101-cb0724d89270</stRef:instanceID>
            <stRef:documentID>xmp.did:3094b6a0-7766-4c9e-a101-cb0724d89270</stRef:documentID>
            <stRef:originalDocumentID>xmp.did:b8b0ef4c-fe8a-6a4b-8022-3d38a8fb307d</stRef:originalDocumentID>
            <stRef:renditionClass>proof:pdf</stRef:renditionClass>
         </xmpMM:DerivedFrom>
         <xmpMM:History>
            <rdf:Seq>
               <rdf:li rdf:parseType="Resource">
                  <stEvt:action>saved</stEvt:action>
                  <stEvt:instanceID>xmp.iid:b8b0ef4c-fe8a-6a4b-8022-3d38a8fb307d</stEvt:instanceID>
                  <stEvt:when>2017-07-17T18:13:16+02:00</stEvt:when>
                  <stEvt:softwareAgent>Adobe Illustrator CC 2017 (Windows)</stEvt:softwareAgent>
                  <stEvt:changed>/</stEvt:changed>
               </rdf:li>
               <rdf:li rdf:parseType="Resource">
                  <stEvt:action>saved</stEvt:action>
                  <stEvt:instanceID>xmp.iid:5522281f-056f-4d73-ba54-3a52e35f49de</stEvt:instanceID>
                  <stEvt:when>2019-05-29T15:55:56+05:30</stEvt:when>
                  <stEvt:softwareAgent>Adobe Illustrator CC 23.0 (Macintosh)</stEvt:softwareAgent>
                  <stEvt:changed>/</stEvt:changed>
               </rdf:li>
            </rdf:Seq>
         </xmpMM:History>
         <dc:format>image/svg+xml</dc:format>
         <xmp:CreatorTool>Adobe Illustrator CC 23.0 (Macintosh)</xmp:CreatorTool>
         <xmp:CreateDate>2019-05-29T15:55:56+05:30</xmp:CreateDate>
         <xmp:MetadataDate>2019-05-29T15:55:56+05:30</xmp:MetadataDate>
         <xmp:ModifyDate>2019-05-29T15:55:56+05:30</xmp:ModifyDate>
         <xmp:Thumbnails>
            <rdf:Alt>
               <rdf:li rdf:parseType="Resource">
                  <xmpGImg:width>240</xmpGImg:width>
                  <xmpGImg:height>256</xmpGImg:height>
                  <xmpGImg:format>JPEG</xmpGImg:format>
                  <xmpGImg:image>/9j/4AAQSkZJRgABAgEASABIAAD/7QAsUGhvdG9zaG9wIDMuMAA4QklNA+0AAAAAABAASAAAAAEA&#xA;AQBIAAAAAQAB/+4ADkFkb2JlAGTAAAAAAf/bAIQABgQEBAUEBgUFBgkGBQYJCwgGBggLDAoKCwoK&#xA;DBAMDAwMDAwQDA4PEA8ODBMTFBQTExwbGxscHx8fHx8fHx8fHwEHBwcNDA0YEBAYGhURFRofHx8f&#xA;Hx8fHx8fHx8fHx8fHx8fHx8fHx8fHx8fHx8fHx8fHx8fHx8fHx8fHx8fHx8f/8AAEQgBAADwAwER&#xA;AAIRAQMRAf/EAaIAAAAHAQEBAQEAAAAAAAAAAAQFAwIGAQAHCAkKCwEAAgIDAQEBAQEAAAAAAAAA&#xA;AQACAwQFBgcICQoLEAACAQMDAgQCBgcDBAIGAnMBAgMRBAAFIRIxQVEGE2EicYEUMpGhBxWxQiPB&#xA;UtHhMxZi8CRygvElQzRTkqKyY3PCNUQnk6OzNhdUZHTD0uIIJoMJChgZhJRFRqS0VtNVKBry4/PE&#xA;1OT0ZXWFlaW1xdXl9WZ2hpamtsbW5vY3R1dnd4eXp7fH1+f3OEhYaHiImKi4yNjo+Ck5SVlpeYmZ&#xA;qbnJ2en5KjpKWmp6ipqqusra6voRAAICAQIDBQUEBQYECAMDbQEAAhEDBCESMUEFURNhIgZxgZEy&#xA;obHwFMHR4SNCFVJicvEzJDRDghaSUyWiY7LCB3PSNeJEgxdUkwgJChgZJjZFGidkdFU38qOzwygp&#xA;0+PzhJSktMTU5PRldYWVpbXF1eX1RlZmdoaWprbG1ub2R1dnd4eXp7fH1+f3OEhYaHiImKi4yNjo&#xA;+DlJWWl5iZmpucnZ6fkqOkpaanqKmqq6ytrq+v/aAAwDAQACEQMRAD8A9U4q7FXYq7FXYq7FXYq7&#xA;FXYq7FXYq7FXYq7FXYq7FXif5w/8pYn/ADCx/wDEnze9nf3fxec7V/vfgutP+VeG2T1bW3eUWyMx&#xA;a6vIy0/EGQUEbhab07fwEvGvmefcOXzYwOCtwOXfLn8kmn1DylDO0a6OLhFREE0d1OFZwQWkAdVb&#xA;4t1ptTLxDIR9VfANBnjB+m/ifmlOqXGnz3XqWFobO34KPRMjS/EBRm5Nv8R3pl0BIDc2WnJKJPpF&#xA;B775Rmhh8n6VJM6xxraxcnchVFVA3JzntQCcsq73qdKQMMSe4I863oqrzN/bBSaBjNHSvhWuVeFL&#xA;uLb40O8fNUXU9NZQy3cJUioIkUilCa9fAE4OCXcnxI94WXus6PYSLHfX1vayMOSpPKkbFa0qAxG2&#xA;GOOUuQJRPNCP1ED4of8AxX5X/wCrxY/9JMP/ADVkvy+T+afkWH5nF/Oj8w7/ABX5X/6vFj/0kw/8&#xA;1Y/l8n80/Ir+Zxfzo/MO/wAV+V/+rxY/9JMP/NWP5fJ/NPyK/mcX86PzCYW1zbXUCz20qTwPuksb&#xA;B0ahpsy1ByuUSDRboyEhYNhUwJdirsVdirsVdirsVdirsVdirsVdirsVdirsVdirsVdiqx4IHPJ4&#xA;1Y9KsAT+OEEoIBW/VLX/AHyn/Aj+mPEUcI7nfVLX/fKf8CP6Y8RXhHc76pa/75T/AIEf0x4ivCO5&#xA;D6vpi6hpktiHEKycPi4JIAFcMRwcFTXjTcYiRBsc1lEEURsxa0/LmZLuCe7v7e4jjlaWWEWFunOr&#xA;hgA25T4RQ07muW/mMneWr8tj/mhk3+HtC5FvqEHI9T6a17+3ucj40+8svAh3B5v+b+mald65ZPa2&#xA;k1wi23FmijZwD6jGhKg5s+zpxEDZrd0/auOUpigTspw+ZdXWKFX0PVEkijij5QkID6IoCQbY1B8G&#xA;rkjhjf1R/HxYDPOh6J9Ps/zUv1PzF57up3MFjdR25KMkctqkjqyFHrzWCMH44lP2e2WQw4QNyL9/&#xA;7WrJmzyOwNe73eQ7kh1Kz81alcC4u9PuXlVBGCtsyDivQUVQNsyISxxFAj5uNOGWRsxPye1fl/BP&#xA;B5P02KeNopUR+Ubgqw/eMdwd80erIOUkPR6GJGGILIMxnLdirsVdirsVdirsVdirsVdirsVdirsV&#xA;dirsVdirsVdirA/Ofn7WtF8wxaTp9nDcmaONow4cuzyMVCjiw8M2Gm0kZw4pGnV6vXTx5OCIBQp8&#xA;5/mWBU+XF26/BJ2r/l+2T/LYP57X+c1H8z71FfP35hMoZdBiZSA1QshopAarUfYcWB3w/lMP85j+&#xA;fz/zPvUNQ/M3ztpyK99osVsjEBTIsq1LAkDdvAZKGhxS5StjPtHNH6o183omgahLqWi2N/KqpJdQ&#xA;pK6LXiCwrQVrmtyw4Zkdzt8GQzgJHqEflba7FXYq7FXYq7FXYq7FXYq7FXYq7FXYq7FXYq7FXYq7&#xA;FXYq7FXYq7FXYq7FXYqxnzB5A0jXNVj1O4ubqC6iVEQ27ooHAllYckY1qfHMrDq5Y48IApws+hhl&#xA;lxEkHyWr5ECqFXzBrIA6f6Uvv/xX74fzf9GHyR+R/pz+f7FNPy7tkNU1vVlIAG1wg2ChQP7vpxFM&#xA;J1h/mx+X7UDs8D+Kfz/Yp3v5ZadfQrDeavqlzCpDLHLcI6hgOINDGd6GmGOulE2IxHw/aiXZ0ZCj&#xA;KZ+P7GT6Zp8OnadbWEDM0NrGsUbOQWKqKCpAAr9GYs5mUiT1c3HAQiIjoicgzdiqnPcW9vH6k8qR&#xA;R1pzdgoqfc4QCeSCQOaH/TWj/wDLfb/8jU/rkvDl3Fj4ke8O/TWj/wDLfb/8jU/rj4cu4r4ke8O/&#xA;TWj/APLfb/8AI1P64+HLuK+JHvCMVlZQykFSKgjcEHIM3Yq7FXYq7FXYq7FXYq7FXYq7FXYq7FXY&#xA;q7FXYq7FXYq7FXYq7FXYq7FXYq7FXYqwj84I1k8oBWXlH9bt/U+EsOPP4iQu5FPDM7s8/vPgXD1w&#xA;/d/EPOte1fRNKuIH0nTdJ1xZizzqdMmgWJgoUUDyNVXqTx7H6M2WLHKY9RlH/OBdfknGJ9IjL/NL&#xA;Ar1Ly6uWn+p+jyCj04YiiDioXZQO9Kn3zYRIAq3CkCTyUPqV5/viT/gG/ph4h3o4S+tNGBGj2IOx&#xA;FvFUf7AZyOT6j73p8f0j3IzIM3Yq7FXYq7FXYq7FXYq7FXYq7FXYq7FXYq7FXYq7FXYq7FXYq7FX&#xA;Yq7FXYq7FXYq7FXYq7FXYq7FXYq7FXYq7FXYq7FXYq7FXYq7FXYq7FXYq7FXYq7FXYq7FXYq7FXY&#xA;q7FXYq7FXYq7FXYq7FXYq7FXYq7FXYq7FXYq7FXYq7FXYq7FXYq7FXYq7FXYq7FXYq7FWLav54+o&#xA;a02kxac93cBkRBHNCHfmgkPGMtz+EdajMiGGMhZkA0zyyBoRJVbfzTrEqu7eXL2NUrRSY+ZoKj4S&#xA;QPbrhOCI/jDEZpfzSmOn6xdXUojm0y5tKsU5yhSoopbkSrH4TSnzyueMDkQWyMyehCZ5U2MOT8wb&#xA;ua4ure00Oe8ls24XCW00ErIxJADhW+GvGormUNPA/wAYcY5pD+Eo4eaNb4KzeXLyrJz4q8RI+GvE&#xA;8iu9dsHgR/nhPjS/mlNdN1Ge8MgmsZ7Mp09bjRhUgUKk77VP68qnADkbbYSJ6UjsrZuxV2KuxV2K&#xA;uxV2KuxV2KuxV2KuxV2KuxV2KuxV2KuxV2KuxV2KuxV2KvLLXzPd6ner5gs/IsF3cxtLJFqBvoBK&#xA;DCpt3ejRh1onw9OmbGWjxxNGdH+qXBjq5yFiH2ppcfmF5wt5Ein8oiOR6cVbUoBWrcP5P5tsA0mM&#xA;8p/7EqdVkHOH+yCCufzd1u0KG78selG3EmQX0bgK7hAfgiP7Rpk49nxPKf2ftYnWyHOP2s68y6z+&#xA;hNCvdV9H6x9TjMno8uHKhApyo1OvhmDhx8cxHvczLk4ImXcwLQ/MWpacrvovkW0tFvGDSm21G0jE&#xA;jAcgzcUHZ61PjmWdJjHOf+xLijVTP8H+yCMb8y/NALg+VoyY39NwNUtjRuXCmyfzYfyWP+f/ALEo&#xA;/Nz/AJv+yCvoP5l6nqPmGx0e80H6gt96nC5F0s6j0oWlpRIwCaAftd8jl0UYwMhK68mWPVmUxExq&#xA;/NnmYDmuxV2KuxV2KuxV2KuxV2KuxV2KuxV2KuxV2KuxV2KuxV2KuxV2KuxV2KvKn/JvVmsZrFdV&#xA;tRBNyq5tKy0Mnqj4y9djm1HaMbvhPzdadDKqsfJK/wDoXu8/6vcf/Ihv+a8t/lYfzfta/wCTT/OV&#xA;IPyAvIpo5P01GeDBqeg29DX+fE9qgj6ftSOzT/OepeZ9GbWtAvtKWUQNdxmMSkcgtSDWlRXNVgyc&#xA;ExLudjlhxxMe95vqP5J6tqEdvHNrFsiWqlIRFZiP4T48XFenfNlDtKMbqJ383Xy0Ej1HyQP/AEL3&#xA;ef8AV7j/AORDf815P+Vh/N+1j/Jp/nJ35N/Jy58u+ZLPWH1RLlbX1KwiEoW9SJ4/tFz0516ZTqO0&#xA;RkgY1VtuDQmExK+T07NW7F2KuxV2KuxV2KuxV2KuxV2KuxV2KuxV2KuxV2KuxV2KuxV2KuxV2Kux&#xA;Vj2q+bWsNSaxXT5LhgyqrpPbLy5KGJCPIr/DXfbLoY4kWZAfNqlkIO0SVLTvOj36ubfTJZCh48En&#xA;tXYnjz6JKe30+2E4o/zh9qBkl/NP2JrZapd3E3py6bcWw5FS8hiKj4S3I8XOx+ztXfISgB1BZRmT&#xA;0KY5W2MJj/MmS4nWKx0n696kkkELW97ZOJJYufNEAkqSojYkdRQ1GxzKGCB/jHyLjnNP+YfsTUeY&#xA;fMFIyfLlxWRSzBZoDw+GoVqsN67bfjkfBh/PH2p8WX80pnpt/d3RkFxYS2RQ/CZGjZWFSBQqxNdq&#xA;nb6crnADkbbISJ5ikdlbN2KuxV2KuxV2KuxV2KuxV2KuxV2KuxV2KuxV5D5/Pl6b8zIoPMAt2szp&#xA;cfom5+tQKHFxJsJYTTdS25HHNrpDk8H0fzu6+nm63UiHi+v+b3+fkgGi/Jh1f0re0r2ZrvUQAvGo&#xA;2aMEmoOwB7dyBl16nvPyi1f4P3D5ySy/T8qrrSZlskhsL54yUkeW9kaNwwICKVZJNqrVyu/am+Wx&#xA;/MCW+4+DVLwTHbY/F6H+SX/KCxf8xE36xmv7S/vfg5+g/u/iz3Ne5rsVdirsVeSyeYoPMEjam/kD&#xA;TtSf4iLy4urIzEW5aKp9WL1BQMwA8CabHNjLRQiaM9/6pcCOrmdxH/ZBVj8yy6Xfrcw+QNPs7+U8&#xA;lnivLJJiSTHXkkXKvxEfScRo8Z5T/wBiVOrmP4f9kERcfm9rNrwa58siOJuJMgvo3orOEB+GI/tM&#xA;MkOz4nlP/Y/tYnXSHOP2s78y6z+hNCvdV9H6x9TjMno8uHKhApyo1OvhmDhx8cxHvc3Lk4ImXc8/&#xA;07U7hLmDVdP/AC702K6QEW97DeaekqiRTXi4jDryVzX55lHS4xzn/sS4w1OQ/wAH+yCYH8yvNAaR&#xA;f8LRlomCSAapbGjE8QNlPfJfk8f8/wD2JR+bn/N/2QVtC/MvUtQ8x2OjXmhfURfepwuRdrOo9OJp&#xA;aUSMA/Zp9rI5dFGMDISuvKk49WZTETGr82eZgOa7FXYq7FXYq7FWGwfmt5bniE0FvqEsTAlZEtJG&#xA;UgdaEbbUzNOhmNiY/NxBrIHlfyX/APKz9C4q31PUuLmin6lLQmtNtsH5KffH5p/Nx7j8kPc/nD5R&#xA;tWVbpbyBnFVEts6EgGlRyp3yUez8h5V82J12Mc7+SZ+V/wAwfLnmW7ltNLeVpoY/VcSRlBx5Bep9&#xA;zlWfSTxC5NmHUwyGoskzGchjGo/mHodjqN1p7w3k09mQtwbe2eVFJUP9pf8AJOZUNJOUQdt/Nx5a&#xA;qIJG+3kof8rO0LgX+palwUVZvqUtAOtSaZL8lPvj82P5uPcfkhpvzg8owIHmS9iQ0oz2zqDWoG5/&#xA;1G+45Idn5Dyr5sTrsY7/AJMog1uwn0NdbjLfUWtzdBitG9MLz+z40zFOIifD1unJGQGPF0Yz/wAr&#xA;L8rXKrL9RvplZQUk+pSMCpHIUNDtQ1zJ/JZB1Hzcf83A9D8ljfmT5PQVbT7xRULU2Lj4mPFR06km&#xA;gw/k8nePmj81j7j8kPN+bX5fwP6c0M0T0B4PalTQioND4jJDQZjy+9idbiH9jafnT5BjXjG86L4L&#xA;AQPwOJ7NzeXzT+fxMu8v6/p+vaXHqenlmtZSyoXXi1UYqdvmMw8uI45cJ5uTjyCYsckxytsdirsV&#xA;eWwfk7qMMbxi+0+ZHZmDT2AkkHJuX2y/LbNqe0Aekv8ATOtGhI6j5KN7+S2p3dusD6lYxhRxDxWC&#xA;xvSvL7Svhj2lEG6P+mRLQEjmPkgoPyAvIpo5P01GeDBqeg29DX+fLD2qCPp+1iOzT/OepeZ9GbWt&#xA;AvtKWUQNdxmMSkcgtSDWlRXNVgycExLudjlhxxMe95/efk/rF3aywS6nYgzBFedLEJLxjKlVDq4N&#xA;PgGbCPaEQbo/NwToZEVY+SU/9C93n/V7j/5EN/zXlv8AKw/m/a1/yaf5yd+TfycufLvmSz1h9US5&#xA;W19SsIhKFvUieP7Rc9OdemU6jtEZIGNVbbg0JhMSvk9OzVuxdirsVdirsVdirxvSfJ3nzT9MsbQa&#xA;TIzWbS8yup+mkiTcyQqK1IyCy/Z67167bnJqMUpE8XP+i6mGDLEAVy/pIseXPPIuTM2i3EgIZSr6&#xA;xUkMwajMACw618Sa5HxsVVxD/SMvByXyP+mSXzF+XXnvWFtidLdZrcMpln1BLgsrHkAA3HjQ+GXY&#xA;dXihe/8Asaasmlyyrb7U/wDyk8heZvLmtXl1q1usMM1t6UbLIj1b1FalFJ7DMfX6qGSIET1b9Fpp&#xA;45EyHR6pmqdk8s1zyr51HmfWL3TrF57S/likjZL76spVIgjBowd61PX6O9driz4vDiJHceVutyYc&#xA;nGSBsfOkPJ5d/MKQtz0y5ei8YXbWKuoYKGXlQAqSpNKd/bJDNh7x/pWJxZe4/wCmSjzF5A/MbWBF&#xA;GtlJFax0Jt5tQW4UuKgMOZWlAx+85dh1WGHXf+rTVk02WXTb3vT9O0XUIfy/j0aRAL9dNNqY+QI9&#xA;UwlKcq06981c8gObi6cVuxjjIxcPXhefW/lDz9FaW8B0h2a3jjjDDVCqkRoEB4Bvh2qKKaUNB45s&#xA;DqMJJPFz/ouCMGWuX+ybfyr+Yzv8enTPGdyraqSQyuHRlauxUr9+/XHx8Pf/ALFfAy93+yS/V/y2&#xA;836kryNoKreMABdPqAkagp1DGhyzHrMcf4tv6rCekyS/h396Sf8AKmfP/wDywx/8j4v+asv/AJRw&#xA;9/2NX5HL3Mxe98y+Q/JmgafJLDp9xPdzJeSyKLhY4mYuGohNaA1oMwxGGfLI8xW3RyjKeHHEct0O&#xA;fzL1j6u8i+atP9VVPGE2UoJcVotRXYmnxe/scl+Sjf0S+bD83KvrHyY5/wAru89/79t/+RI/rmT/&#xA;ACZi8/m0fyhl8non5Red9d80fpb9KvG31P6v6PpoE/vfV5Vp1+wM1vaGmhi4eHrf6HP0Wolkvi6U&#xA;xeD80vMUil59esbQ82VoHtJHdAHK78RQ/COW2ZZ0MByiT8XGGsn1kB8FDWfza8y2SxfUtatNRd93&#xA;EdoYwnXqXO528Mlj0EJc4kfFjPXTHKQPwQWm/nP53uNRtYJJbf05Zo0ekIBozAHvk59m4hEndjDX&#xA;5CQNn0BnPO8dirsVdirsVdirsVdirsVdirznzN5X863uv6vPY2tobOVIJNMnkvrmJjJH6QlSWNFZ&#xA;Yw3xlWjr9n4vtbXw1EoihXyaZYIyN7pbL5O/MT6q/oafYi7PArI+q3jCvBgQf3HJwCFHxH4tz7ZL&#xA;83Ly+TH8tHz+bLPI2k+ZdNlv4tUtreG0kMb2rRXc13IW40cMZY4qDYUp/blWTKZ82zHjEeTLMrbH&#xA;YqxDzx5f17VLu0k0uGF1hjcSSS3U9uQ/JWjpHErJIo4kNyI6ih65djzGGwpqyYhLmxseSfOcf1eV&#xA;LC2d2YNcRNq12xjYM5qkxgDMCOFV4r367DLDq5+XyYflY+fzZR5H0HWrFZbjWokhvSCkaQXlxdxF&#xA;G4VJE6rRv3ajv+NMqyZjIUa+TZDEImxbK8qbHmup6B58k1a99GxWW0llllt7o6tKtFeVmRRAIV4m&#xA;gX/dhUKWUb/FmQNQQKofJoOAE8z824dA88Rxeulg6zIOJtpNbkk5xyxsjhZPqy8HSooae4NcTqSe&#xA;kfkowAdT8088rv56tnhs9R0uAWJZzLdPfmeeMEk7fuFE1SR/vum+3StU58RtthHhFMtyDJRvReG0&#xA;mFkYxdlCIDNX0w9PhLcdyB7ZKNXvyRK625pEkP5hC4QtcaY9vzDSAJMrcKglBuwr1HL6adsvvDXK&#xA;X2NFZb5xZHmM5DsVSbUU83tcy/o6SxjttvRM4lZz8IqHC0H269D0y6Bx16rtqn4l7Uv0WHzOkkra&#xA;zcWsqH+6S1R1p03Yud++OQ4/4QfiuMT/AIiE2yltdiqX/plP04NI+rT8zCZ/rXEehQEDjyrXlv4Z&#xA;Z4fo4rDDj9XDSYZWzdiqWa3ql1YNaehFFIk0oWdppRFwjqOTiv2qVy3HASu2vJMiqRLarpa05XkC&#xA;12FZEG/35Hw5dxZcce9V+uWnLj68fLpTkteoXx8WA+nI8JTxBVBBAINQdwRgS7FXYq7FXYq7FXYq&#xA;7FXYq7FXYq7FXYq7FXYq7FXYq7FXYq7FXYq7FXYq7FWIa35Z1bVfNKuzTW+imCklxb3skUvqgMBx&#xA;gVeP7Q3r79t78eoMBVA+8NM8Ikbs/NGweSLCKQyfpDUZH4lQXunNASTtSnSuSOpJ6R+SBpwOp+at&#xA;aeU4rVy6anqLkqV/eXHMb+nVqFev7ofefHIyz30j8kxw11PzQ3nPy7qWsiyFkunOsJkE66lBJOCs&#xA;igfuvTeIq21Ca9MhDLKH0mmc8cZcxbF7f8vvNq3JuHt/LcTJI7QiO2vWqpd+BctMKtwappT4ieoG&#xA;8zqsnK2H5eHczG28naAohnn0+3F8vB5JYVZFEq8G5R71UB4wV3wfmJ1Vp8CF3Sb2trBawiGBeESk&#xA;kLUndiWO5JPU5VKRJstgAHJVwJdirzjTPzL8xalZRXlvpmniKbZRJqCow6g8lZPhpx75sp6KETRM&#xA;v9K4ENXOQsAfNzfmX5jXkP0ZpxdKll/SKDYGleTKFP0HH8lDvl/pUfm59w+aV6r+dur6XcLBc6Nb&#xA;s7KXHpXYkFA7R7lUNDVDsd8tx9mxkLEj8muevlE0Yj5p7+Xn5nT+bdTubKTT1tBBB6wdZDJX41Wl&#xA;Cq/zZRq9EMUQbvdv02rOUkVTPs17mvOtX/MHzBB5h1XTrVtJtrfTpIo0fUZZYXkMqcwFI+Ekb5sc&#xA;ekgYRkeI33OBPUyEiBw7d6hL+YPmhA5W+8tTcNyIruVyQCQSAN6ClSfDJDSY+7J8kHUz74fNAap+&#xA;bHmbT7A3nPQrsCRIzDazyyy/GrMG41HwjjvlkNBCRr1j3hrnrZxF+ko7yf8AmnrGt6T5hvLi0t4p&#xA;NHs2uoFj50dgkjUerHb4O2V6jQxhKIBPqNNmDWSnGRIHpCy3/MbzZNBbSCbQVe5jjljtzNcGUCRC&#xA;4DIoNCKcT25UGE6PGCfr29yBqpn+Z9rpfzH80pG0i3XlyYKyKwjupWIEjAc6V+ygPJvAe+I0ePuy&#xA;fJTqp98Pmk+pfnT5rsbwWv1PTrotT05rVpZYnJ7I4ajUOxp3y6HZuOQu5D3tUtfMGqBQbfn55nUk&#xA;NptmCCQQRKNx1H28n/JWPvLD+Up9wZR/ys7XpPLOh6lDbWaXer3ctq4mMiwRhGKhqhuXz6+wzF/J&#xA;QE5RJNRFuT+blwRNC5FKta/OHzLpSW7EaLem45VSymlmaPgF2k+Ica8tvkcux9nwnf1j3tU9dONf&#xA;Sfclf/K/vMn/AFbrP/kr/wA15b/JUO8tf8pT7gzv8r/P+pebv0n9dt4bf6l6Hp+jz39X1K15Funp&#xA;jMDW6SOGqPO3N0mpOW7HJJ7H8y/M17btcJPoFsB6x9C6nmjmAhah5LuKt1FDl0tFCJr1n3ANMdXM&#xA;i/Qvm/MbzRFcpb/WvLssrmlIrmaSh5cd+NenX5YBo8ZF1P5BJ1UwauHzSu9/OXzJZ3NtC0WlXQnI&#xA;5NavLJwq1KNVhRvbLY9nQkCfUPe1y10wR9Jex5pnauxV2KuxVjfnG7nt5NNaL9JNSVpGj0yNJeYj&#xA;AYpKGZTQgGlK5k6cA3fD8WjOSKri+DUXncSy+mug6xXkV5G0AXZiteRen7OJ039KPzQNR/Rl8lce&#xA;bR9ZEB0bVBVwnq/VT6YqyLyqGPw/vK/IHwwfl9r4o/Nl429cMvknFpci5t1mEckQav7uZSjihI3U&#xA;/LKJRo02xNhWwJdirxqXyVpmlMthcedLGCWz4n05rKH1I+Lo4NWm5Luq9P4mu5GplPcYzv5n9TqT&#xA;p4x2Mxt5ftUdT8haHqSwfWvOdgBGSI5I7OGLkZADuyTLy+zUf25KGqnHljl8z+pEtNGXOY+X7WrD&#xA;8i9P1CN5bHzPHcxo3B3jtQwDcVfjUT9eLg4y7TMecK+P7Fj2eJcpfZ+1mXkD8r/8I6lcXv6T+u/W&#xA;IfR9P0PSp8YatfUkr9nwzD1et8aIFV8XL02k8Ik3bOswHMea+bvK+iWuuS3975in0uTVZBPHbrEJ&#xA;FLwII6r8LbqG/HNnp88jChAS4XX58MRKzKrSX9F+VLsxqfOtxNvzUG3DAEDlyasdBTr8Xzy7jyD/&#xA;ACY+bVwQP8f2Iu28n6HrjPpEHm65umljMj2/oqvKNHUk1KrsGI75E6icPUYAMhgjP0iZLIfLn5Va&#xA;foen6xZRX0sy6xbG1ldlUFFKuvJadT+8zGza4zMTX0m2/FoxAEX9QY4+i6HbK2mN51u1WyPoNB6P&#xA;IR+gyx8K8D9hivfwzJ8SZ9Xhjf8AS4/hxG3GdlO10by1JNW3873BkEczbRKBwCBpa1WlOKVp7bYZ&#xA;ZJ1vjCjHDpNNbL8uYtVsBNaeabq4s5W5B1jjCsyNUHoOhG39MqlrOA0YC2yOlEhtI0i2/Ku6JQ/4&#xA;iu1MYovGKEbcSvYeDHIfnh/MDL8mf5xa1L8tdKtvKdpYT6tLbWmjtPdNeFEJKyAlwymopQn54w1k&#xA;jkJEbMqFLPSREACdopZpXkrTNaNzb6f5tubr6tx+sIsKALz5Beqgb+menhls9TKFGUALa4aeM7Am&#xA;Ss/6F+0f/q7XH/ItMP8AK0v5oX+TY95ZX5E/L6z8ofXvq13JdfXvS5+oqrx9LnSnHx9TMTVas5qs&#xA;VTk6fTDFdG7YhceXfLugzzaY/m6eyf1VZ4PQVijS1daNwbiG5+O/fpmYM08g4uAH4uKcUIGuOlJ9&#xA;K8sX8Dc/Oc0sKV5yPbrxY8KHk7J8dV36mu+ETyRP939rHw4SH1/YirP8sNE1sB4PMc17HayguFij&#xA;ADip3IC75GWtlDnCrZx0kZ8pXT1XNS7Jjt/+X3lC/wDMCeYLuwMmrxyQypc+tOoD2xBib01cR/Dx&#xA;H7O/fFWRYq7FUq1zyvoWuPavqlt9YeyZ3tHEkkbRtIvBmUxshqV2r4V8cVVNA8v6VoGmR6ZpUTQ2&#xA;URZkR5ZZ2q55MTJM0kjEsamrYqmOKuxV2KuxViep+QPr99eXR1m8iF5zDQgQOqh4XiAQyRs6cS6s&#xA;ODL9hf8AKLSEyORYmIPRFeW/KDaO9ybnU59WjmMZgS7jt/3JTlUo0UcZJYMK8q/ZHvV4z3rwjuT+&#xA;GCCFeEMaxJ/KgCjYAdB7CmAknmkABfgS7FUk8weVU1qVJG1O/sCkMkBSymWNGWRlYsVdJBzHCiuN&#xA;wCR3OEFaSqP8t40ZiPMWs0ZQoH1iH4aGvIEQ8q9tzjxFHCETpXkVdO1aHUhrurXTRcv9GuJ4mgYO&#xA;nEq6LEpIr8fX7QHbbG1pk+BLDJ/ywt5tUub8+Y9dRbmWWZrNL0CBGmJJEY9PmiqGIRQ9F69d8NlF&#xA;BUuPy4hmg9IeYNahYGNkniukWRTGWJIYxmvqc/jBqNh0xsrQVLH8vks5hInmHW5Eo4aCS7BjJkTh&#xA;yoIxxK9V4kUO+AlNNDyBNWUt5n1ysh+ArdIOChkYAfuzXZCu/Zj3oQqyLUrBb+wlszPNbCQAevbt&#xA;wlXiQQVYhvDuMVY9H+X6xsSnmHWVqAHC3MahuJqK8Yh8tsJNoAZXgS7FWK+YPIZ1nVhfnXdTsYqC&#xA;tpaTIkYdAAjryRqU3JBrU08MNlFIax/LVrX1FPmXWZYmVURGnjqoViQeXpcieNASTvvXrjxFaCd6&#xA;J5bGlTtKNSvr0MnBYruVHRR8O4Com/w9TX7sCU4xV2KuxV2KuxV2KuxV2KuxV2KuxV2KuxV2KuxV&#xA;2KuxV2KuxV2KuxV2KuxV2KuxV2KuxV2KuxV2KuxV2KuxV2KuxV2KuxV2KuxV2KvH9I83+b77S7a/&#xA;uPMq2n1gFvTOlvKFCu0ZPNEKsOS02zcZNPjjIgQv/OdVDPkIBMq/zXSebvOCKzHzKnEbK36LehJb&#xA;ioFE5b0r0xGnx/zP9kpz5P53+xS4fmZ5vi8z2GmLrMV/BLcRw3JW0WEqTOY2jIdQ1eIrt45Z+Sxn&#xA;GZcNbd/kw/N5OMC737vN7jmjdw7FXleu+cPM6eZ9ZsoNZXT7WxlijtovqX1kt6kXM/Eqk7MO/jm1&#xA;xafH4cSY2T5063JnmJyAlQHlaDtvOHm6eONv8SrFI6M7RPpT8l4rypUIV/HJnT4x/B/smAzzP8X+&#xA;xQOo+fPPttZPcW+tJeSJMYvRjsCoKhnAk5tGFoVQN9PtlkNLiJoxr/OYS1OUCxK/gmHkj8wfNWs6&#xA;F5quL66VptO0957N0jjQpJ6chDbDfdB1yvU6THCcABzlv9jZp9TOcZknkFljq3nOXTrW5udV1ZJL&#xA;uGOWL0LWCdGDoDUFVHcjYmtOuGWPEJECMdvMojkyUCTLfyUbnzD5rSznki1nVDJAhLO1pCsYfieA&#xA;aqDiGPv0r17mOHHY9MfmWJyzrnL5JGfM/wCcgJAuLpqGnJYoWUn2ZVINe1Mv8DTdw+1q8bP3lKpP&#xA;zR/MKN2jfVpVdCVZTHECCNiCOGWjQ4f5rX+by970fUPOHmeLyj5TuLa+EV7q0np3d08ImJr3Eaqa&#xA;n2Ub5roafGckwRtFz555jHAg7ySLWfPf5g2Udq1hqo1Nrjl6ixaeU9Mjjx3ZPi5FjSnhl+PS4ZXc&#xA;eH/OaJ6nKKo38Eg/5XN+YH/LdH/yIi/5pzI/k7D3fa0/nsve9G/J/wA5+YPMv6X/AEvOs31T6v6H&#xA;GNI6ep6vL7IFfsDNb2hpoYuHhHO/0Ofoc8sl8XSkisPPPmq8tWuJPMsdo4M3KA6cZePpsVVfURSp&#xA;LDL56bGDXBf+c0R1MyL4q+CrcebvNsMsSDzPHIstP3g0xwoq/Dulfcf1wDT4z/B/sknPMfxf7FK9&#xA;R/MXz7Y3MCJqi3URZVuX+pCERszU4EugqT7ZbDR4ZDlXxa5arKDzv4Pc80TuXYq7FXYq7FXYq7FX&#xA;Yq7FXYq8ovvLXkvR7iSwWy8wMtueQ+qmVoidjVCpAJPLtm2jmyzF3DfvdbLFjiaqa+DQfKII9O28&#xA;xRiarAhpqkkEtVVYt86jvgOXJ3w+xRix900f5e/LbyPeypq1vbX8U0E6SqbtnRmcBJg1G+0KtQnx&#xA;rleXWZQOEmO46NmPS4z6gD8Xoua5znYqwDzZ5c8gW+rveaxd3dreapWQrC8/F/SCJWkSsNuS9c2G&#xA;DNmMaiARH3OFmxYhK5EglJ5dI/Ke2MlrLqmoQlD6UsLPeLvJRePEx9+IB+W+XDJqDvUfsaTjwDaz&#xA;9qPsfKf5eapdixtdSv5rmWATCJri4WsLIjgnmoH2Zl2+fgcrlnzRFkRq+4M44MUjQJ+1kOh/lz5X&#xA;0W31C2tIpGg1OL6veJJIx5RkMpAI4kVDnocx8usyTIJ/h5ORj0sIAgdWMXOgfkpp18YJoGt7uJyN&#xA;n1AFWR+BIYNTZu9cyhl1UhYO3+a4xx6eJrr/AJyy38v/AJHXNykEMIeaV1RP3l/Qs7cV+Itx3Pv7&#xA;9MTl1QFn/eqMWmJr9bIP+VQfl3/1af8Ap4uf+quY/wDKGb+d9g/U3/ksXd9pd/yqD8u/+rT/ANPF&#xA;z/1Vx/lDN/O+wfqX8li7vtKJ17yd5UbQba3vPVtNM0ZWkgMMsgaNeJDfF8Ttt26nI4tRk4yRvKSc&#xA;mCHCAdhFItF8o+QdZe6j0vU9QuGt+IugLm4SnOoX7YXlX0u3h8svyajNCuIR38g048GKd8JPzKI/&#xA;5Ul5F/31cf8AI4/0yP8AKWXyZfkMfmn3lXyRoXlf61+ilkX656freo5f+65caV6fbOUZ9TPLXF0b&#xA;8Onjjvh6sPvtD/LHQ7+Wzn1K+s7gOokhjkuSnKcBlrwQp8W2ZkcueYsAEfBxJY8MDRJHzUIdO/Km&#xA;4t2ePWNQe3ipVjLd8BxHMUqlNgKimSM9QD9MfsQIYCOZ+1NdN8h+Q9ajZrW8vbyK3kXmr3E3ESDc&#xA;fDIBlM9VlhzAF+QbIabFPkSXoOa9znYq7FXYq7FXYq7FXYq7FXYqxvU/y68nanqc+qXlgWv7niZ5&#xA;0nuIizIixq9I5EUOEQKGArTbFVGT8rvJDur/AFCRHReAaO6u4zxoq7lJVrUIASevfFWSWNlbWNlb&#xA;2Vqnp2trGkMEdS3GONQqrViSaAdziqtirsVSnWvLcGrTQzSXl5aNCrIDZzGAlXpX4lHMdP2SPwGK&#xA;oCfyJZzSrI2rauFWSKT0vr85jJikaWhVi2zFgG9lA2xVZD5AtYpIHGs6wywf7pN66xOKj4WiULHx&#xA;26BQMVZRirELv8t7eWXUJ7bX9bsptQkkmIhv5fTikkLNWKNqqqgsKKNqADFUSnkSBXtnOt6yxt+o&#xA;bUJqSmoP7xQQDsKbU+/fFVNfy9tVVUXW9YVFFBGl40aAbU4oiqq8aVHEDFWTwxelDHFyZ/TULzc8&#xA;mNBSrHuT3xVQ1TT49R064sJZZYYrlDG8lvI0UoVtjwkWjKadxvirHH/Lm1aX1Rr2uI5rzK6jMA1a&#xA;jcewag+XjirLFXioWpNBSp3P04q3irH9d8oLqt39bTWNU06aigLZXTxRfCCKmLdCTy328MVQ8XkC&#xA;1jllkOs6xKJg4MUt9JJGA6GOnB6ghQ1QGqK4qiNE8mW+k3cNwmp6ldrbxtFDb3dyZYVVyNwnEbgC&#xA;i+AxVkGKuxV2KuxV2KuxV2KuxV2KuxV2KuxV2KuxV2KuxV2KuxV2KuxV2KuxV2KuxV2KuxV2KuxV&#xA;2KuxV2KuxV2KuxV2KuxV2KuxV2KuxV2KuxV2KuxV2KvNdW88eZk8y6xp9td2Vpa6c8SxevbzSu4k&#xA;jDGjRnj8J68qZs8emhwRkQST5h189RPjIBAA8lG485+bYYnk/S+mOqdONncnvQk/FtSlThGmxn+G&#xA;XzDE6iY6x+RQOs/mH5506zedLiwuZY3CSWyWtwsijiSznk1Aq7A133yzHpMUjVEfEMJ6rJEXY+RR&#xA;Pkr8zfMes6P5ku7xbcS6TZNc2vpoyguEkb4wWNRVBkNTooQlAC/UaZ4NXOcZE16Q618+eaprKG4k&#xA;1fS4JJYo5jbvbT8wJEDbUehpyAxlpcYNcMvmEDUzIu4/IoPWvzL826faeta6hp2oTLKI5LeG1nVl&#xA;BDVf4mHwgpTfJ49FjkaIkPiGM9XOI2IPwKRyfnZ5+jXlJb2qL0q0EgGxp3fMgdm4e8/Np/P5fJ7L&#xA;5P1a61fyzp2pXYUXF1EJJQgIWpJGwJOaXUYxCZiOQdtgmZQBPVKfzA8yavo36Lj014YnvZpI5JLi&#xA;N5FVUjL14oQe2XaTDGd8XRq1OWUKrqxSD8wvNM8oiXVNPU0LM7WdwUABFRyR3qd+23vmUdJjHSXz&#xA;DijVTPUfIqEv5m+ZI5Cn6Z0c8I+bkxSj49/3YBepI475IaKH82SDq598WQflP561vzV+lf0msK/U&#xA;/q/o+ihT+99TlWrN/vsZj6/SxxcPD1v9Dfo9RLJd9Eq0vzz5z1Gze8S+sIEV3Qo1pcvxYSGONGdT&#xA;xrIacaHLZ6XFE1UvmGuGoySF2PkV155285W0qwtqWm+rWklbS6CpRqNU1J267rjHTYjvUvmFlqMg&#xA;2uPyKR3n5webLa6toY7rTb1ZiOZgilHAFgKNyZd8vj2fjIJqQaTrpgjcF7fmjdw7FXYq7FXYq7FX&#xA;Yq7FXYq7FXYq7FXYq7FXYqwTzD5c8s2Wty6ld+YtQ0i61R1lMEE6RxyNAFUUQxPy47HeuZ+HNOUe&#xA;EQjIR8v2uFlxQErMjEnzS2S18n3lUbz1q0izBuSLdqEo27AqIQqih6eHtlglkH+Tj8v2sDHGf8pL&#xA;5/sRFt5Y8t6s0mmwecdYujPE/qWgvEIaGoV6oYqcfip+GRlmnD1HHEfD9qRhhLYTkfimug/ld5f0&#xA;Sx1Wztbi7eLV7c2tyZXjLKhVlqnGNQDRz1rlWXXTmYkgek2249JGAIF+piM2n/lxp850mTzdrEL2&#xA;paP6sHYopjb0mC0tiuxjpt4eGZgnmkOLgjv+O9xTDFE8PHLb8dyP0PQfKOrX/wBW0rzZrct3FEZA&#xA;olMdIkYLVS9uq0BkHTxyvLlyQFyhCvx5s8eLHI1Gcr/Hkml3+UOkXkRhudY1aWJgoaNpoeJCU47e&#xA;jTamVR7QkNxGPyP62w6GJ5mX4+DLdE0i20bSbXS7Vne3tE9ONpSC5ANfiKhR+GYeXIZyMj1crHAQ&#xA;iIjolPnjy9ouq2ENxqt5c2MGnuZBPakBh6g9M8qpKafF2GXabLKBqIBvvatRijIXIkUw2TTfI55y&#xA;y+a9bILfFK5ehZgT9s2tCevQ+OZonl/mQ/HxcQwx/wA+X4+CXzeTfyovriS6n8w6jPcTTGOSWQgu&#xA;8poTQtbVb7QqRsMsGo1ERQjH8fFgcGAmzI/j4PQfJvkHR/KX1z9GzXEv130/V+sMjU9Lnx48Ej/3&#xA;4a1zXajVSy1xVs52DTRxXV7sP1Hy15D0ic6ZdeadWszFMjraLMRGksh9ZCoWArWvxCnfMyGbLMcQ&#xA;hE/j3uLLFiiaM5D8e5UtrfyZJG0sHnXWXigPJm9clAVUMK1t6H4VFPbBI5eRxw+X7UiOPpOX4+Cn&#xA;o/5Q/l5qEjy6dql9cG1dRJSSIBW+0AawDDk7QzR+oAX+O9ENFilyJ2/Hc9VzVOydirsVdirsVdir&#xA;sVdirsVdirsVdirsVdirsVSLzJ5XfWmjZNSuLBolKr6CwuKk1JKzJIvthEiOSCAeaS6P+W15YyQT&#xA;XXmO7vJoyplHoWkUb0TiyhFiJClvi+0T2rTJHJLvKOCPciNM/L+60+7trhPMeoSCCVXeJ0tOMsa7&#xA;mF39D1eLHqQ/I+OAyJ6pEQGX5FLFJfy8tnvbi5j1zWoFuZXma2jvnEKPI7yN6asGKCsmwBoAAB0x&#xA;VTb8uIzB6K+ZNeQAko63x5rVVWgJQ7Dht8ziqO0byd+jL5bz9NapeMpcmC6ufUhYOCApjK9EB+Gh&#xA;7fPFWQ4qhdV09dRsJbNppbcS8f30DBZF4sGFCwYdtwQQRirF2/LOB40jk8x69IE47vfsSStKMfh6&#xA;7dRirKNKsP0fp1vY/WZ7z6ugj+tXT+rPJT9qR6Dkx7mmKorFWO6t5Is9T1WTU5tR1GKV4Xt0ggum&#xA;jgRZI/TYrEBx5ftVau+Kpa35aNRynmvzCrOvEf6dVVoQaheHtirNMVdirsVdirsVdirsVdirsVdi&#xA;rsVdirsVdirsVdirsVdirsVdirsVdirsVdirsVdirsVdirsVdirsVdirsVdirsVdirsVdirsVdir&#xA;sVdirsVdirsVdirEb78w0g1e/wBNttHvb59NZFupoBGY19ReS1LOtK++ZkdJcRIyAtxZaqpEAE0p&#xA;y/mJdRBjL5a1JOJoeQhBrWlAPU3322wjSA/xx+1B1RH8MkJf/mzDp9qbu90HUYLYOIzK4h482BIX&#xA;7fWgyUdAZGhKNsZa0RFmJRPl7809H1uw1e8t7S4ij0e3N1OsnCrqFZqJRjv8HfI5dDKBiCR6jTLF&#xA;rIzBIB9Iag/MqW4ginh8uak8UyLLCQIfjR6cWUepUg1wnR0aM4/agau/4ZLm/MedXCN5c1Hke37g&#xA;0r0rSTatdq9cH5Mfz4/an81/RKV6h+dmk6dcfVr3SL6CfiG9NvRrRtwdn75bDs2UhYkGuWvjE0QU&#xA;w8p/mvo3mXWF0u0s7iGZkeQPLw40QVP2WJyvPoJYo8RIZ4dZHJLhAKdeafNsHl/6ir2k95NqE3oW&#xA;8Nvx5F6VA+Mr1yjBgOS96puzZhCtrtKv+Vi3PJlHlvUi6r6jRqIC4StOXEScuNR1pl35Mfz4/a1f&#xA;mj/Nkp/8rMk9VYv8Oan6jR+qF4w14VUcj+82H7xeuH8l/Tij83/RkjvJPn/TfN3136lbzW/1L0vU&#xA;9bhv6vOlOJbp6ZyvU6SWGrPNs0+pGW6HJA2v5mm7h+sWnl/UZ7cmQLMgh4t6RKvxq4rQjfLJaKjR&#xA;lG2sau9xErpPzInjkWN/LepCR/sx0hLbnjXiJK0rtgGjH8+P2pOr/oyQN3+cmnWU8EN7o1/bPcU9&#xA;ISCIVBIFft9N8sj2dKQsSiWB1wB3iXoWa5znYq7FXYq7FXYq7FXYq7FXYq7FXYq7FXYq7FXmGv8A&#xA;5cea7vzPqOqWL6c1teyI6rcSXKSgLGqUJhUU3Hjm0xazGMYieKx7nXZdLMzMhW/vQd/+Wfni6EiJ&#xA;+iYYWrxUXF+7D4qg8mG5FadMnHW4h/O+UWEtJkP835lT1D8rPOV5aiBk0dCVo7+tet8VGAZVZeK0&#xA;DbbYYa7FE36vsRLR5CP4ftR3k38rvMGiaR5js7q4tHl1eya1tjE8hVXKSLV+UakCrjpXK9RroTlA&#xA;gH0m2zBpJQjIGvUELB+WvnqGO3jCaIUt4o4qCS+j9T0hQNJ6fCrHucmdZiN/X/sWA0mQfzftdJ+W&#xA;vnlxJ8Giq7ghZBPqPNKinwknw8a4jW4v6fyip0mT+j/slGX8qfOE0zzT2+gzSOKVdrzbr0oo7HCN&#xA;djAoGf2IOiyHnw/amfkf8s9e0PzWmsXZ0+K1WF4vQsnnO7ClaSr9/wAWV6nWwnj4RxX502afSShP&#xA;iNV5Wn/5heVNY19NMbS3tVmsJ2nK3hkCGq0H92rE79sx9JnjjvivcdG/VYZTrhrbvYk/5Y+dgZfQ&#xA;XRohJG0asZb13UMCOQZl+0K1G2x7ZljW4uvH9ji/k8n9H7Up/wCVLfmFVT+l7WqbqfrFztXw/dZd&#xA;/KWH+afkP1tf5DL3j5n9TNfyr8g6x5S/Sn6Smt5frvoel9XZ2p6XqcuXNI/9+ClMwtdqo5a4b2ty&#xA;9HppYrut2OQfld59tYHt7WbSFQymX1XM7SkFi3FiYivHfdaUPfMg67ETZ4vs/W440eQbDhWan+VP&#xA;nu/t1haXSYCr8xLFNe+pQA0WsiyfDU1/zGGGuxRN+r7FnoshH8P2pdH+RvnT6xDLNf2MgiYHeWdi&#xA;AG5ECsOWHtPFWwP2frax2fkvmPt/U90zRO5dirsVdirsVdirsVdirsVdirsVdirsVdirsVYr508q&#xA;XmuTW0tvHZStaqwjW8+sCjORUhreSI9F71y3HnnC+E82vJhjPmGN6H+WOqQtby39jo8TKB6kVvJq&#xA;LhAUAYKZJtyCKBqDbelctOtynr9gaxpMY6fejvLHkrzNpOtfXGj0iOOP90J4vrzzyQOyNJ8Mkvpx&#xA;saNTZug8TSueonMUTszhghE2Bu9AylteZah+Wev3F7qV1x0i4e6u7i4tTML+IpHKfgWT0J0DOATy&#xA;YfQBmTHV5AKB+5olpsZNkNW/5Z62hhjkttENsWU3SJ+kVbjyq3BjcMamppy2Hhj+cy9/3I/K4+5O&#xA;dJ0Dz3o+mxWOmzaRFGrlpfUjupSeXEswPqL1PL4adKb13ynJklM2ebbCAiKDKdJGsCzH6Xa3e85N&#xA;U2iusXGvw7SMzVp1yDNS8xabNqeh3unwNGkt3E0KvMHaNeYpyZY2jZqdaBhXxGShIxNjmGMoiQo8&#xA;mBQ/ljq0wtRcWuk2kS3CTXEcBvGkCAqHCSNJXkyAqOwNGp1Bv/OZe/7mn8rj7mV/8q88oei8P1Fv&#xA;Skf1HX17ihejDn/efa/eNv74/m8l3f2BP5bH3feyPMZvYJ5k/Li41vzJNqTS2kVrJGoUGOdp/WRV&#xA;WOVmWZEIShonGh75kQ1WSAoHZpnp4SNkbqfl38tpLa6lXV7bTW06SIgQ2ZvfUMrUWrPPNJVeFRtT&#xA;c1wnV5D1+5A0uMdGY6Voml6Usq2EHoLM3OUcnarAU/aLU+jKp5ZT5tkMcY8kdlbN2KuxV2KuxV2K&#xA;uxV2KuxV2KuxV2KuxV2KuxV2KuxV2KuxV2KuxV2KuxV2KuxV2KuxV2KuxV2KuxV2KuxV2KuxV2Ku&#xA;xV2KuxV2Kv8A/9k=</xmpGImg:image>
               </rdf:li>
            </rdf:Alt>
         </xmp:Thumbnails>
         <xmpTPg:NPages>1</xmpTPg:NPages>
         <xmpTPg:HasVisibleTransparency>False</xmpTPg:HasVisibleTransparency>
         <xmpTPg:HasVisibleOverprint>False</xmpTPg:HasVisibleOverprint>
         <xmpTPg:MaxPageSize rdf:parseType="Resource">
            <stDim:w>155.310313</stDim:w>
            <stDim:h>53.500000</stDim:h>
            <stDim:unit>Pixels</stDim:unit>
         </xmpTPg:MaxPageSize>
         <xmpTPg:Fonts>
            <rdf:Bag>
               <rdf:li rdf:parseType="Resource">
                  <stFnt:fontName>Avenir-Book</stFnt:fontName>
                  <stFnt:fontFamily>Avenir</stFnt:fontFamily>
                  <stFnt:fontFace>Book</stFnt:fontFace>
                  <stFnt:fontType>TrueType</stFnt:fontType>
                  <stFnt:versionString>13.0d3e1</stFnt:versionString>
                  <stFnt:composite>False</stFnt:composite>
                  <stFnt:fontFileName>Avenir.ttc</stFnt:fontFileName>
               </rdf:li>
               <rdf:li rdf:parseType="Resource">
                  <stFnt:fontName>Avenir-Medium</stFnt:fontName>
                  <stFnt:fontFamily>Avenir</stFnt:fontFamily>
                  <stFnt:fontFace>Medium</stFnt:fontFace>
                  <stFnt:fontType>TrueType</stFnt:fontType>
                  <stFnt:versionString>13.0d3e1</stFnt:versionString>
                  <stFnt:composite>False</stFnt:composite>
                  <stFnt:fontFileName>Avenir.ttc</stFnt:fontFileName>
               </rdf:li>
               <rdf:li rdf:parseType="Resource">
                  <stFnt:fontName>Avenir-Black</stFnt:fontName>
                  <stFnt:fontFamily>Avenir</stFnt:fontFamily>
                  <stFnt:fontFace>Black</stFnt:fontFace>
                  <stFnt:fontType>TrueType</stFnt:fontType>
                  <stFnt:versionString>13.0d3e1</stFnt:versionString>
                  <stFnt:composite>False</stFnt:composite>
                  <stFnt:fontFileName>Avenir.ttc</stFnt:fontFileName>
               </rdf:li>
               <rdf:li rdf:parseType="Resource">
                  <stFnt:fontName>Avenir-Heavy</stFnt:fontName>
                  <stFnt:fontFamily>Avenir</stFnt:fontFamily>
                  <stFnt:fontFace>Heavy</stFnt:fontFace>
                  <stFnt:fontType>TrueType</stFnt:fontType>
                  <stFnt:versionString>13.0d3e1</stFnt:versionString>
                  <stFnt:composite>False</stFnt:composite>
                  <stFnt:fontFileName>Avenir.ttc</stFnt:fontFileName>
               </rdf:li>
               <rdf:li rdf:parseType="Resource">
                  <stFnt:fontName>MyriadPro-Regular</stFnt:fontName>
                  <stFnt:fontFamily>Myriad Pro</stFnt:fontFamily>
                  <stFnt:fontFace>Regular</stFnt:fontFace>
                  <stFnt:fontType>Open Type</stFnt:fontType>
                  <stFnt:versionString>Version 2.106;PS 2.000;hotconv 1.0.70;makeotf.lib2.5.58329</stFnt:versionString>
                  <stFnt:composite>False</stFnt:composite>
                  <stFnt:fontFileName>MyriadPro-Regular.otf</stFnt:fontFileName>
               </rdf:li>
            </rdf:Bag>
         </xmpTPg:Fonts>
         <xmpTPg:PlateNames>
            <rdf:Seq>
               <rdf:li>Cyan</rdf:li>
               <rdf:li>Magenta</rdf:li>
               <rdf:li>Yellow</rdf:li>
               <rdf:li>Black</rdf:li>
            </rdf:Seq>
         </xmpTPg:PlateNames>
         <xmpTPg:SwatchGroups>
            <rdf:Seq>
               <rdf:li rdf:parseType="Resource">
                  <xmpG:groupName>Default Swatch Group</xmpG:groupName>
                  <xmpG:groupType>0</xmpG:groupType>
                  <xmpG:Colorants>
                     <rdf:Seq>
                        <rdf:li rdf:parseType="Resource">
                           <xmpG:swatchName>R=30 G=118 B=189 1</xmpG:swatchName>
                           <xmpG:mode>RGB</xmpG:mode>
                           <xmpG:type>PROCESS</xmpG:type>
                           <xmpG:red>30</xmpG:red>
                           <xmpG:green>118</xmpG:green>
                           <xmpG:blue>189</xmpG:blue>
                        </rdf:li>
                        <rdf:li rdf:parseType="Resource">
                           <xmpG:swatchName>R=255 G=255 B=255 1</xmpG:swatchName>
                           <xmpG:mode>RGB</xmpG:mode>
                           <xmpG:type>PROCESS</xmpG:type>
                           <xmpG:red>255</xmpG:red>
                           <xmpG:green>255</xmpG:green>
                           <xmpG:blue>255</xmpG:blue>
                        </rdf:li>
                     </rdf:Seq>
                  </xmpG:Colorants>
               </rdf:li>
            </rdf:Seq>
         </xmpTPg:SwatchGroups>
      </rdf:Description>
   </rdf:RDF>
</x:xmpmeta>
                                                                                                    
                                                                                                    
                                                                                                    
                                                                                                    
                                                                                                    
                                                                                                    
                                                                                                    
                                                                                                    
                                                                                                    
                                                                                                    
                                                                                                    
                                                                                                    
                                                                                                    
                                                                                                    
                                                                                                    
                                                                                                    
                                                                                                    
                                                                                                    
                                                                                                    
                                                                                                    
                           
<?xpacket end="w"?>
	</metadata>
<g id="Layer_10">
	<g>
		<path fill="#FFFFFF" d="M13.77,41.226h-1.344l4.928-11.328h1.12l4.928,11.328h-1.344l-1.248-2.975h-5.792L13.77,41.226z
			 M15.451,37.195h4.911l-2.447-5.953L15.451,37.195z"/>
		<path fill="#FFFFFF" d="M24.554,33.738h1.056v1.248h0.032c0.17-0.256,0.373-0.475,0.607-0.656c0.234-0.18,0.48-0.33,0.736-0.447
			s0.52-0.203,0.792-0.256s0.53-0.08,0.776-0.08c0.586,0,1.122,0.1,1.607,0.297s0.904,0.471,1.256,0.824
			c0.353,0.352,0.627,0.768,0.824,1.248c0.197,0.479,0.296,1.002,0.296,1.566c0,0.566-0.099,1.088-0.296,1.568
			s-0.472,0.896-0.824,1.248c-0.352,0.352-0.771,0.627-1.256,0.824s-1.021,0.297-1.607,0.297c-0.246,0-0.504-0.027-0.776-0.08
			c-0.272-0.055-0.536-0.139-0.792-0.256c-0.256-0.119-0.502-0.268-0.736-0.449s-0.438-0.4-0.607-0.656H25.61v5.857h-1.056V33.738z
			 M31.386,37.482c0-0.416-0.067-0.805-0.2-1.168c-0.134-0.361-0.323-0.676-0.568-0.943c-0.245-0.266-0.541-0.477-0.888-0.633
			c-0.347-0.154-0.739-0.23-1.176-0.23c-0.438,0-0.838,0.076-1.2,0.23c-0.363,0.156-0.678,0.367-0.944,0.633
			c-0.267,0.268-0.475,0.582-0.624,0.943c-0.149,0.363-0.224,0.752-0.224,1.168s0.074,0.807,0.224,1.168
			c0.149,0.363,0.357,0.678,0.624,0.945c0.267,0.266,0.581,0.477,0.944,0.631c0.362,0.154,0.763,0.232,1.2,0.232
			c0.437,0,0.829-0.078,1.176-0.232s0.643-0.365,0.888-0.631c0.245-0.268,0.435-0.582,0.568-0.945
			C31.319,38.289,31.386,37.898,31.386,37.482z"/>
		<path fill="#FFFFFF" d="M34.33,33.738h1.056v1.248h0.032c0.17-0.256,0.373-0.475,0.607-0.656c0.234-0.18,0.48-0.33,0.736-0.447
			s0.52-0.203,0.792-0.256s0.53-0.08,0.776-0.08c0.586,0,1.122,0.1,1.607,0.297s0.904,0.471,1.256,0.824
			c0.353,0.352,0.627,0.768,0.824,1.248c0.197,0.479,0.296,1.002,0.296,1.566c0,0.566-0.099,1.088-0.296,1.568
			s-0.472,0.896-0.824,1.248c-0.352,0.352-0.771,0.627-1.256,0.824s-1.021,0.297-1.607,0.297c-0.246,0-0.504-0.027-0.776-0.08
			c-0.272-0.055-0.536-0.139-0.792-0.256c-0.256-0.119-0.502-0.268-0.736-0.449s-0.438-0.4-0.607-0.656h-0.032v5.857H34.33V33.738z
			 M41.163,37.482c0-0.416-0.067-0.805-0.2-1.168c-0.134-0.361-0.323-0.676-0.568-0.943c-0.245-0.266-0.541-0.477-0.888-0.633
			c-0.347-0.154-0.739-0.23-1.176-0.23c-0.438,0-0.838,0.076-1.2,0.23c-0.363,0.156-0.678,0.367-0.944,0.633
			c-0.267,0.268-0.475,0.582-0.624,0.943c-0.149,0.363-0.224,0.752-0.224,1.168s0.074,0.807,0.224,1.168
			c0.149,0.363,0.357,0.678,0.624,0.945c0.267,0.266,0.581,0.477,0.944,0.631c0.362,0.154,0.763,0.232,1.2,0.232
			c0.437,0,0.829-0.078,1.176-0.232s0.643-0.365,0.888-0.631c0.245-0.268,0.435-0.582,0.568-0.945
			C41.095,38.289,41.163,37.898,41.163,37.482z"/>
		<path fill="#FFFFFF" d="M45.402,41.226h-1.057V29.131h1.057V41.226z"/>
		<path fill="#FFFFFF" d="M49.482,30.859c0,0.225-0.08,0.408-0.24,0.551c-0.16,0.145-0.336,0.217-0.528,0.217
			s-0.368-0.072-0.528-0.217c-0.159-0.143-0.239-0.326-0.239-0.551s0.08-0.408,0.239-0.553c0.16-0.145,0.336-0.215,0.528-0.215
			s0.368,0.07,0.528,0.215S49.482,30.635,49.482,30.859z M49.242,41.226h-1.057v-7.488h1.057V41.226z"/>
		<path fill="#FFFFFF" d="M52.793,33.738c0.021,0.203,0.034,0.404,0.04,0.602c0.005,0.197,0.008,0.396,0.008,0.6h0.032
			c0.117-0.203,0.267-0.391,0.448-0.561c0.181-0.17,0.384-0.316,0.607-0.439s0.461-0.219,0.712-0.289
			c0.251-0.068,0.499-0.104,0.744-0.104c0.96,0,1.669,0.254,2.128,0.76c0.459,0.508,0.688,1.23,0.688,2.168v4.752h-1.057v-4.143
			c0-0.832-0.144-1.471-0.432-1.912c-0.288-0.443-0.821-0.664-1.6-0.664c-0.054,0-0.203,0.021-0.448,0.062
			c-0.246,0.043-0.504,0.16-0.776,0.354c-0.271,0.191-0.515,0.479-0.728,0.863c-0.214,0.385-0.32,0.918-0.32,1.6v3.84h-1.056v-5.84
			c0-0.203-0.009-0.459-0.024-0.768s-0.035-0.604-0.056-0.881H52.793z"/>
		<path fill="#FFFFFF" d="M64.585,34.428l3.168-4.529h1.44l-3.84,5.377l4.16,5.951h-1.521l-3.456-5.135l-3.472,5.135h-1.44
			l4.145-5.951l-3.824-5.377h1.552L64.585,34.428z"/>
	</g>
	<g>
		<path fill="#FFFFFF" d="M19.992,15.144c-0.203-0.257-0.478-0.445-0.824-0.568s-0.675-0.184-0.983-0.184
			c-0.182,0-0.368,0.021-0.561,0.063c-0.191,0.043-0.373,0.109-0.544,0.2s-0.31,0.211-0.416,0.359
			c-0.106,0.15-0.16,0.331-0.16,0.545c0,0.341,0.128,0.603,0.385,0.783c0.256,0.182,0.578,0.336,0.968,0.464
			c0.389,0.129,0.808,0.257,1.256,0.385s0.866,0.31,1.256,0.544s0.712,0.549,0.968,0.943c0.256,0.396,0.385,0.923,0.385,1.584
			c0,0.63-0.118,1.179-0.353,1.648s-0.552,0.858-0.952,1.168c-0.399,0.31-0.864,0.539-1.392,0.688
			c-0.528,0.148-1.086,0.224-1.672,0.224c-0.736,0-1.419-0.112-2.048-0.336c-0.63-0.225-1.217-0.587-1.761-1.088l1.776-1.952
			c0.256,0.342,0.578,0.605,0.968,0.792c0.39,0.187,0.792,0.28,1.208,0.28c0.203,0,0.408-0.024,0.616-0.072s0.395-0.12,0.56-0.216
			c0.166-0.097,0.299-0.219,0.4-0.368s0.152-0.325,0.152-0.528c0-0.341-0.131-0.61-0.393-0.808s-0.589-0.365-0.983-0.504
			c-0.396-0.139-0.822-0.277-1.28-0.416c-0.459-0.139-0.886-0.325-1.28-0.561c-0.395-0.234-0.723-0.544-0.983-0.928
			c-0.262-0.384-0.393-0.891-0.393-1.52c0-0.608,0.12-1.142,0.36-1.601c0.24-0.458,0.56-0.843,0.96-1.152
			c0.399-0.309,0.861-0.541,1.384-0.695s1.062-0.232,1.616-0.232c0.64,0,1.259,0.091,1.855,0.272
			c0.598,0.182,1.137,0.485,1.616,0.912L19.992,15.144z"/>
		<path fill="#FFFFFF" d="M22.714,18.04c0-0.906,0.152-1.728,0.456-2.464s0.728-1.362,1.272-1.88
			c0.544-0.518,1.188-0.915,1.936-1.192c0.746-0.277,1.562-0.416,2.448-0.416c0.885,0,1.701,0.139,2.447,0.416
			c0.747,0.277,1.393,0.675,1.937,1.192s0.968,1.144,1.271,1.88c0.305,0.736,0.456,1.558,0.456,2.464
			c0,0.907-0.151,1.729-0.456,2.464c-0.304,0.736-0.728,1.363-1.271,1.88c-0.544,0.518-1.189,0.915-1.937,1.192
			c-0.746,0.277-1.562,0.416-2.447,0.416c-0.886,0-1.702-0.139-2.448-0.416c-0.747-0.277-1.392-0.675-1.936-1.192
			c-0.545-0.517-0.969-1.144-1.272-1.88C22.866,19.768,22.714,18.947,22.714,18.04z M25.306,18.04c0,0.533,0.083,1.021,0.248,1.464
			c0.165,0.443,0.402,0.827,0.712,1.152s0.681,0.578,1.112,0.76s0.914,0.272,1.448,0.272c0.533,0,1.016-0.091,1.447-0.272
			c0.433-0.182,0.803-0.435,1.112-0.76s0.547-0.709,0.712-1.152c0.165-0.442,0.248-0.931,0.248-1.464
			c0-0.522-0.083-1.008-0.248-1.456c-0.165-0.448-0.402-0.834-0.712-1.16c-0.31-0.325-0.68-0.578-1.112-0.76
			c-0.432-0.182-0.914-0.271-1.447-0.271c-0.534,0-1.017,0.09-1.448,0.271s-0.803,0.435-1.112,0.76
			c-0.31,0.326-0.547,0.712-0.712,1.16S25.306,17.517,25.306,18.04z"/>
		<path fill="#FFFFFF" d="M36.582,12.376h7.6v2.304h-5.104v2.305h4.72v2.304h-4.72v4.416h-2.496V12.376z"/>
		<path fill="#FFFFFF" d="M48.233,14.584h-3.231v-2.208h8.96v2.208h-3.232v9.12h-2.496V14.584z"/>
		<path fill="#FFFFFF" d="M54.445,12.376h2.721l1.808,7.264h0.032l2.368-7.264h2.319l2.353,7.456h0.031l1.904-7.456h2.528
			l-3.312,11.328h-2.224l-2.496-7.84h-0.032l-2.496,7.84h-2.144L54.445,12.376z"/>
		<path fill="#FFFFFF" d="M74.444,12.376h2.064l4.928,11.328H78.62l-0.976-2.4h-4.4l-0.943,2.4h-2.752L74.444,12.376z
			 M75.404,15.672l-1.376,3.521h2.769L75.404,15.672z"/>
		<path fill="#FFFFFF" d="M82.446,12.376h4.384c0.576,0,1.122,0.056,1.64,0.168s0.971,0.299,1.36,0.561
			c0.389,0.261,0.698,0.613,0.928,1.056s0.344,0.995,0.344,1.656c0,0.8-0.208,1.479-0.624,2.04c-0.416,0.56-1.023,0.914-1.823,1.063
			l2.88,4.784h-2.992l-2.368-4.528h-1.231v4.528h-2.496V12.376z M84.942,17.064h1.472c0.224,0,0.461-0.009,0.712-0.024
			c0.25-0.016,0.478-0.063,0.68-0.144c0.203-0.08,0.371-0.206,0.504-0.376c0.134-0.171,0.2-0.411,0.2-0.721
			c0-0.288-0.059-0.517-0.176-0.688s-0.267-0.302-0.448-0.393c-0.182-0.09-0.39-0.151-0.624-0.184s-0.464-0.048-0.688-0.048h-1.632
			V17.064z"/>
		<path fill="#FFFFFF" d="M92.83,12.376h7.696v2.304h-5.2v2.112h4.912v2.304h-4.912V21.4h5.488v2.304H92.83V12.376z"/>
		<path fill="#FFFFFF" d="M111.117,12.376h2.064l4.928,11.328h-2.816l-0.976-2.4h-4.4l-0.943,2.4h-2.752L111.117,12.376z
			 M112.077,15.672l-1.376,3.521h2.769L112.077,15.672z"/>
		<path fill="#FFFFFF" d="M128.826,22.904c-0.736,0.384-1.504,0.661-2.305,0.832c-0.8,0.17-1.615,0.256-2.447,0.256
			c-0.886,0-1.702-0.139-2.448-0.416c-0.747-0.277-1.392-0.675-1.936-1.192c-0.545-0.517-0.969-1.144-1.272-1.88
			c-0.304-0.735-0.456-1.557-0.456-2.464c0-0.906,0.152-1.728,0.456-2.464s0.728-1.362,1.272-1.88
			c0.544-0.518,1.188-0.915,1.936-1.192c0.746-0.277,1.562-0.416,2.448-0.416c0.906,0,1.741,0.109,2.504,0.328
			s1.432,0.595,2.008,1.128l-1.76,1.92c-0.342-0.352-0.726-0.618-1.152-0.8s-0.96-0.271-1.6-0.271c-0.534,0-1.017,0.09-1.448,0.271
			s-0.803,0.435-1.112,0.76c-0.31,0.326-0.547,0.712-0.712,1.16s-0.248,0.934-0.248,1.456c0,0.533,0.083,1.021,0.248,1.464
			c0.165,0.443,0.402,0.827,0.712,1.152s0.681,0.578,1.112,0.76s0.914,0.272,1.448,0.272c0.544,0,1.013-0.062,1.408-0.185
			c0.395-0.122,0.709-0.248,0.943-0.376v-1.84h-2.032v-2.304h4.433V22.904z"/>
	</g>
</g>
<g id="Layer_2">
</g>
<g id="Layer_3">
</g>
</svg>
